<mxfile host="app.diagrams.net" agent="Mozilla/5.0 (Windows NT 10.0; Win64; x64) AppleWebKit/537.36 (KHTML, like Gecko) Chrome/130.0.0.0 Safari/537.36" version="24.8.3">
  <diagram name="Page-1" id="sGjQ7m2G3MN2MaqTW69j">
    <mxGraphModel dx="1877" dy="523" grid="1" gridSize="10" guides="1" tooltips="1" connect="1" arrows="1" fold="1" page="1" pageScale="1" pageWidth="827" pageHeight="1169" math="0" shadow="0">
      <root>
        <mxCell id="0" />
        <mxCell id="1" parent="0" />
        <mxCell id="QhEOJmIxH4zM1tV8FhGk-2" value="System" style="shape=umlActor;verticalLabelPosition=bottom;verticalAlign=top;html=1;" parent="1" vertex="1">
          <mxGeometry x="740" y="170" width="30" height="60" as="geometry" />
        </mxCell>
        <mxCell id="cjHX63HQ0iyKOUZ8dX6u-20" style="edgeStyle=orthogonalEdgeStyle;rounded=0;orthogonalLoop=1;jettySize=auto;html=1;exitX=0.5;exitY=1;exitDx=0;exitDy=0;entryX=0.5;entryY=0;entryDx=0;entryDy=0;" parent="1" source="QhEOJmIxH4zM1tV8FhGk-8" target="cjHX63HQ0iyKOUZ8dX6u-8" edge="1">
          <mxGeometry relative="1" as="geometry" />
        </mxCell>
        <UserObject label="Get Ticket Id" tooltip="Registration" id="QhEOJmIxH4zM1tV8FhGk-8">
          <mxCell style="ellipse;whiteSpace=wrap;html=1;" parent="1" vertex="1">
            <mxGeometry x="150" y="20" width="120" height="80" as="geometry" />
          </mxCell>
        </UserObject>
        <mxCell id="cjHX63HQ0iyKOUZ8dX6u-1" value="User" style="shape=umlActor;verticalLabelPosition=bottom;verticalAlign=top;html=1;" parent="1" vertex="1">
          <mxGeometry x="-120" y="180" width="30" height="60" as="geometry" />
        </mxCell>
        <mxCell id="Cuv0TeKVCw_1QDO-3tMe-7" style="edgeStyle=orthogonalEdgeStyle;rounded=0;orthogonalLoop=1;jettySize=auto;html=1;exitX=0.5;exitY=1;exitDx=0;exitDy=0;entryX=0.5;entryY=0;entryDx=0;entryDy=0;" edge="1" parent="1" source="cjHX63HQ0iyKOUZ8dX6u-6" target="Cuv0TeKVCw_1QDO-3tMe-6">
          <mxGeometry relative="1" as="geometry" />
        </mxCell>
        <mxCell id="cjHX63HQ0iyKOUZ8dX6u-6" value="Complete Payment" style="ellipse;whiteSpace=wrap;html=1;" parent="1" vertex="1">
          <mxGeometry x="160" y="350" width="120" height="80" as="geometry" />
        </mxCell>
        <mxCell id="cjHX63HQ0iyKOUZ8dX6u-22" style="edgeStyle=orthogonalEdgeStyle;rounded=0;orthogonalLoop=1;jettySize=auto;html=1;entryX=0.5;entryY=0;entryDx=0;entryDy=0;" parent="1" source="cjHX63HQ0iyKOUZ8dX6u-7" target="cjHX63HQ0iyKOUZ8dX6u-6" edge="1">
          <mxGeometry relative="1" as="geometry" />
        </mxCell>
        <mxCell id="cjHX63HQ0iyKOUZ8dX6u-7" value="Check if Balance is there or not&amp;nbsp;" style="ellipse;whiteSpace=wrap;html=1;" parent="1" vertex="1">
          <mxGeometry x="160" y="240" width="120" height="70" as="geometry" />
        </mxCell>
        <mxCell id="cjHX63HQ0iyKOUZ8dX6u-8" value="Enter User Card Details" style="ellipse;whiteSpace=wrap;html=1;" parent="1" vertex="1">
          <mxGeometry x="150" y="140" width="120" height="80" as="geometry" />
        </mxCell>
        <mxCell id="cjHX63HQ0iyKOUZ8dX6u-19" value="" style="endArrow=none;html=1;rounded=0;" parent="1" target="QhEOJmIxH4zM1tV8FhGk-8" edge="1">
          <mxGeometry width="50" height="50" relative="1" as="geometry">
            <mxPoint x="-100" y="220" as="sourcePoint" />
            <mxPoint x="-50" y="170" as="targetPoint" />
          </mxGeometry>
        </mxCell>
        <mxCell id="cjHX63HQ0iyKOUZ8dX6u-21" style="edgeStyle=orthogonalEdgeStyle;rounded=0;orthogonalLoop=1;jettySize=auto;html=1;exitX=0.5;exitY=1;exitDx=0;exitDy=0;entryX=0.425;entryY=0.032;entryDx=0;entryDy=0;entryPerimeter=0;" parent="1" source="cjHX63HQ0iyKOUZ8dX6u-8" target="cjHX63HQ0iyKOUZ8dX6u-7" edge="1">
          <mxGeometry relative="1" as="geometry" />
        </mxCell>
        <mxCell id="cjHX63HQ0iyKOUZ8dX6u-26" value="&lt;b&gt;Payment Use Case Diagram&lt;/b&gt;" style="text;html=1;align=center;verticalAlign=middle;whiteSpace=wrap;rounded=0;" parent="1" vertex="1">
          <mxGeometry x="340" y="30" width="290" height="80" as="geometry" />
        </mxCell>
        <mxCell id="Cuv0TeKVCw_1QDO-3tMe-1" value="Check if Balance is there or not&amp;nbsp;" style="ellipse;whiteSpace=wrap;html=1;" vertex="1" parent="1">
          <mxGeometry x="160" y="240" width="120" height="70" as="geometry" />
        </mxCell>
        <mxCell id="Cuv0TeKVCw_1QDO-3tMe-2" value="Third Party Bank" style="ellipse;whiteSpace=wrap;html=1;" vertex="1" parent="1">
          <mxGeometry x="440" y="175" width="120" height="70" as="geometry" />
        </mxCell>
        <mxCell id="Cuv0TeKVCw_1QDO-3tMe-4" value="" style="endArrow=classic;startArrow=classic;html=1;rounded=0;" edge="1" parent="1" target="Cuv0TeKVCw_1QDO-3tMe-2">
          <mxGeometry width="50" height="50" relative="1" as="geometry">
            <mxPoint x="280" y="270" as="sourcePoint" />
            <mxPoint x="330" y="220" as="targetPoint" />
          </mxGeometry>
        </mxCell>
        <mxCell id="Cuv0TeKVCw_1QDO-3tMe-5" value="" style="endArrow=classic;startArrow=classic;html=1;rounded=0;entryX=0.218;entryY=0.954;entryDx=0;entryDy=0;entryPerimeter=0;" edge="1" parent="1" target="Cuv0TeKVCw_1QDO-3tMe-2">
          <mxGeometry width="50" height="50" relative="1" as="geometry">
            <mxPoint x="280" y="385" as="sourcePoint" />
            <mxPoint x="446" y="340" as="targetPoint" />
          </mxGeometry>
        </mxCell>
        <mxCell id="Cuv0TeKVCw_1QDO-3tMe-6" value="Save Payment Details" style="ellipse;whiteSpace=wrap;html=1;" vertex="1" parent="1">
          <mxGeometry x="160" y="460" width="120" height="80" as="geometry" />
        </mxCell>
        <mxCell id="Cuv0TeKVCw_1QDO-3tMe-8" style="edgeStyle=orthogonalEdgeStyle;rounded=0;orthogonalLoop=1;jettySize=auto;html=1;exitX=1;exitY=0.5;exitDx=0;exitDy=0;entryX=0.5;entryY=0.5;entryDx=0;entryDy=0;entryPerimeter=0;" edge="1" parent="1" source="Cuv0TeKVCw_1QDO-3tMe-6" target="QhEOJmIxH4zM1tV8FhGk-2">
          <mxGeometry relative="1" as="geometry" />
        </mxCell>
      </root>
    </mxGraphModel>
  </diagram>
</mxfile>
